<svg id="Ebene_1" data-name="Ebene 1" xmlns="http://www.w3.org/2000/svg" width="400" height="400" viewBox="0 0 400 400">
  <title>favicon</title>
  <circle cx="200" cy="200" r="200"/>
  <polygon points="292.25 280.84 278.75 263.53 201.11 263.53 201.11 244.92 264.3 244.92 250.88 227.6 201.11 227.6 201.11 209 266.98 209 254.52 191.69 201.11 191.69 201.11 173.07 241.19 173.07 228.72 155.76 201.11 155.76 201.11 137.15 239.02 137.15 226.82 119.84 201.11 119.84 201.11 101.23 213.66 101.23 201.46 83.92 201.11 83.92 201.11 52.42 144.16 131.79 176.18 131.87 111.53 221.98 144.85 221.98 78.89 312.08 201.11 312.08 201.11 280.84 292.25 280.84" fill="#54ffb9"/>
</svg>
